HIERARCHY
ROOT SimulationBone
{
	OFFSET 0.000000 0.000000 0.000000
	CHANNELS 6 Xposition Yposition Zposition Zrotation Yrotation Xrotation 
	JOINT Hips
	{
		OFFSET 0.000000 0.000000 0.000000
		CHANNELS 6 Xposition Yposition Zposition Zrotation Yrotation Xrotation 
		JOINT LeftUpLeg
		{
			OFFSET 0.103458 1.857820 10.548502
			CHANNELS 3 Zrotation Yrotation Xrotation
			JOINT LeftLeg
			{
				OFFSET 43.500000 -0.000023 -0.000011
				CHANNELS 3 Zrotation Yrotation Xrotation
				JOINT LeftFoot
				{
					OFFSET 42.372192 0.000038 0.000002
					CHANNELS 3 Zrotation Yrotation Xrotation
					JOINT LeftToe
					{
						OFFSET 17.299992 -0.000004 0.000006
						CHANNELS 3 Zrotation Yrotation Xrotation
						End Site
						{
							OFFSET 0.000000 0.000000 0.000000
						}
					}
				}
			}
		}
		JOINT RightUpLeg
		{
			OFFSET 0.103461 1.857814 -10.548508
			CHANNELS 3 Zrotation Yrotation Xrotation
			JOINT RightLeg
			{
				OFFSET 43.500042 -0.000015 0.000008
				CHANNELS 3 Zrotation Yrotation Xrotation
				JOINT RightFoot
				{
					OFFSET 42.372253 0.000008 0.000006
					CHANNELS 3 Zrotation Yrotation Xrotation
					JOINT RightToe
					{
						OFFSET 17.299973 -0.000014 0.000011
						CHANNELS 3 Zrotation Yrotation Xrotation
						End Site
						{
							OFFSET 0.000000 0.000000 0.000000
						}
					}
				}
			}
		}
		JOINT Spine
		{
			OFFSET 6.901966 -2.603737 -0.000007
			CHANNELS 3 Zrotation Yrotation Xrotation
			JOINT Spine1
			{
				OFFSET 12.588102 0.000017 0.000001
				CHANNELS 3 Zrotation Yrotation Xrotation
				JOINT Spine2
				{
					OFFSET 12.343197 -0.000013 0.000000
					CHANNELS 3 Zrotation Yrotation Xrotation
					JOINT Neck
					{
						OFFSET 25.832905 -0.000008 0.000000
						CHANNELS 3 Zrotation Yrotation Xrotation
						JOINT Head
						{
							OFFSET 11.766610 0.000009 -0.000002
							CHANNELS 3 Zrotation Yrotation Xrotation
							End Site
							{
								OFFSET 0.000000 0.000000 0.000000
							}
						}
					}
					JOINT LeftShoulder
					{
						OFFSET 19.745903 -1.480377 6.000115
						CHANNELS 3 Zrotation Yrotation Xrotation
						JOINT LeftArm
						{
							OFFSET 11.284125 -0.000014 -0.000024
							CHANNELS 3 Zrotation Yrotation Xrotation
							JOINT LeftForeArm
							{
								OFFSET 33.000046 -0.000012 0.000029
								CHANNELS 3 Zrotation Yrotation Xrotation
								JOINT LeftHand
								{
									OFFSET 25.199989 0.000034 0.000012
									CHANNELS 3 Zrotation Yrotation Xrotation
									End Site
									{
										OFFSET 0.000000 0.000000 0.000000
									}
								}
							}
						}
					}
					JOINT RightShoulder
					{
						OFFSET 19.746098 -1.480362 -6.000071
						CHANNELS 3 Zrotation Yrotation Xrotation
						JOINT RightArm
						{
							OFFSET 11.284137 -0.000006 -0.000008
							CHANNELS 3 Zrotation Yrotation Xrotation
							JOINT RightForeArm
							{
								OFFSET 33.000095 0.000017 0.000000
								CHANNELS 3 Zrotation Yrotation Xrotation
								JOINT RightHand
								{
									OFFSET 25.199778 0.000144 0.000423
									CHANNELS 3 Zrotation Yrotation Xrotation
									End Site
									{
										OFFSET 0.000000 0.000000 0.000000
									}
								}
							}
						}
					}
				}
			}
		}
	}
}
MOTION
Frames: 10
Frame Time: 0.033333
-333.302622 0.000000 -92.138934 0.000000 93.121100 0.000000 1.322257 89.518387 -3.053530 98.998424 -6.788180 -179.705977 -179.165356 0.674897 -178.438310 -22.074768 -5.410084 -3.751699 76.994605 1.695041 -4.021016 21.454551 0.003087 -0.000001 157.754776 8.327909 -169.570812 -71.623898 2.037357 5.394252 71.196540 -3.861203 0.211341 21.454555 -0.003096 -0.000016 9.058479 -1.075994 -0.120715 8.108486 -2.140926 -0.316480 7.790147 -2.142648 -0.303544 13.443090 -2.009596 -11.640809 -3.096442 14.964183 -15.600992 -176.262853 -78.033395 -5.334489 -31.031274 48.337874 0.905143 -73.791984 -14.655224 2.625975 18.085543 3.819374 74.117381 -162.145631 70.887542 19.756228 -8.179046 -58.981491 -19.771478 -28.667052 17.778067 -1.407799 16.834395 8.615598 2.131173 
-333.795519 0.000000 -95.805040 0.000000 91.226693 0.000000 1.073621 89.442673 -3.069805 98.149072 -7.032794 -178.111370 -176.626575 0.893295 -178.711080 -20.636633 -5.215398 -3.771885 78.590171 1.732349 -4.099759 21.454553 0.003099 0.000004 154.436096 8.623193 -170.179942 -63.596533 4.005663 6.797851 71.048031 -4.889914 0.345738 21.454560 -0.003106 -0.000016 8.976040 -1.000125 -0.545840 7.950315 -1.960479 -1.159166 7.632088 -1.967311 -1.147301 12.727258 -1.917618 -11.718454 -3.101972 15.304903 -15.751839 -179.260664 -78.787216 -2.293103 -34.175483 45.511671 -2.182137 -76.347014 -13.235157 2.635122 14.240786 4.123211 65.391227 -159.865427 70.440608 22.111499 -3.990494 -55.795337 -24.151834 -27.798786 16.786015 -1.328665 15.062741 3.268505 8.170045 
-334.175984 0.000000 -99.472420 0.000000 89.360298 0.000000 0.947947 89.177567 -3.089979 97.528906 -7.389945 -176.503263 -173.721395 1.316896 -179.239846 -19.103998 -4.677306 -3.646519 80.179406 1.614560 -4.395298 21.454553 0.003090 0.000000 153.166104 8.791594 -170.934432 -52.302139 5.845158 8.906234 70.937955 -6.419416 0.463757 21.454558 -0.003104 -0.000020 8.978682 -0.992893 -0.910417 7.961481 -1.920952 -1.887161 7.643376 -1.932169 -1.875517 11.818700 -1.073205 -12.039034 -3.431254 14.698620 -15.928478 178.044904 -80.042782 0.422440 -37.168807 42.861735 -5.353354 -78.653091 -12.043977 2.650719 10.612678 4.369973 56.522004 -157.073013 69.945679 24.998614 -0.673701 -53.057879 -28.249184 -28.249172 16.441498 -1.314907 12.599933 2.135231 3.628055 
-334.444129 0.000000 -103.151160 0.000000 87.533083 0.000000 0.883011 88.817833 -3.086423 97.029386 -7.863882 -175.175227 -170.343647 1.884389 -178.932993 -16.904450 -4.323657 -4.085185 81.305185 1.814835 -5.007045 21.454553 0.003091 -0.000001 153.822335 8.580596 -170.171786 -38.022884 5.814530 10.486321 70.464118 -7.178887 1.660959 21.454558 -0.003107 -0.000018 9.008833 -1.082296 -1.164763 8.028000 -2.081349 -2.402078 7.709980 -2.095667 -2.389482 11.368052 -0.127496 -12.278318 -4.668756 14.324092 -16.196738 173.220100 -81.001884 5.293272 -38.982536 40.077965 -7.952046 -80.618266 -10.817106 2.649815 7.501320 3.795506 50.056308 -155.078680 69.515719 27.064515 2.576770 -51.199241 -32.036773 -29.682701 16.940396 -1.373830 11.605607 4.271246 -6.788142 
-334.624074 0.000000 -106.850569 0.000000 85.756625 0.000000 0.854253 88.366631 -2.993851 96.702003 -8.091406 -174.069868 -167.002660 2.040999 -177.456593 -15.022711 -4.500474 -5.192360 82.202836 2.483456 -5.656937 21.454551 0.003097 0.000000 155.751645 7.557692 -167.673194 -23.423205 4.617527 11.706441 69.928720 -8.179911 1.227601 21.454560 -0.003110 -0.000017 9.048596 -1.110814 -1.354636 8.111601 -2.124115 -2.784178 7.793668 -2.140737 -2.771301 11.041337 -0.120200 -12.430649 -5.478669 14.662299 -16.551603 168.768674 -81.264279 9.794672 -39.717362 37.591336 -10.151576 -82.623890 -9.618699 2.653226 5.402083 3.783402 46.885574 -153.787119 69.702012 28.392033 5.513248 -50.365600 -35.499492 -30.061794 17.491175 -1.416423 10.995904 6.797544 -12.230802 
-334.713624 0.000000 -110.574947 0.000000 84.031080 0.000000 0.871958 87.826157 -2.952444 96.578867 -8.527824 -173.564837 -164.281349 2.576199 -177.002727 -14.868588 -4.342758 -5.818922 82.458142 2.717424 -6.651353 21.454551 0.003092 -0.000001 157.214835 6.388506 -169.009507 -13.562917 4.440787 15.347399 71.032622 -10.592018 1.798289 21.454558 -0.003111 -0.000016 9.079715 -1.240446 -1.406022 8.178464 -2.378548 -2.896700 7.860502 -2.395866 -2.882281 10.930024 0.038404 -12.625056 -5.981506 14.926545 -16.881593 164.760924 -81.783292 13.831796 -40.064332 36.488168 -12.226396 -84.419314 -8.743027 2.670520 3.239503 3.616953 48.905240 -152.338681 69.904828 29.879540 7.926231 -50.382976 -36.601642 -29.807840 17.242782 -1.395570 11.641228 7.072501 -11.679828 
-334.707022 0.000000 -114.334635 0.000000 82.348264 0.000000 1.021150 86.993874 -2.947809 96.747224 -8.885400 -173.721501 -162.412582 2.913807 -178.647737 -17.358748 -4.347673 -5.341114 82.837641 2.220039 -7.531663 21.454550 0.003088 0.000001 157.378268 5.311399 -169.736088 -12.194314 4.268342 16.637868 73.186180 -11.792657 0.662018 21.454555 -0.003109 -0.000017 9.101982 -1.342198 -1.319449 8.224107 -2.587370 -2.731544 7.906040 -2.603680 -2.715870 10.972919 -0.074334 -12.778298 -6.289683 15.124687 -17.147864 164.126304 -81.664166 14.478521 -39.654685 36.071435 -13.422616 -86.134232 -8.067573 2.698638 1.654277 3.866307 53.877222 -151.613889 69.767910 30.630311 9.793851 -50.404033 -36.508280 -29.034810 16.856970 -1.356055 12.885083 5.244384 -6.511516 
-334.591290 0.000000 -118.123942 0.000000 80.708015 0.000000 1.256190 86.287231 -2.875871 97.150106 -8.584950 -174.199311 -160.965265 2.256897 178.585254 -20.925990 -4.699304 -4.247443 81.421258 1.196555 -8.335235 21.454550 0.003092 0.000002 157.431844 4.242993 -167.667019 -16.415344 4.370449 14.538095 73.277821 -11.014730 -1.829032 21.454555 -0.003109 -0.000018 9.088681 -1.247444 -1.192917 8.192348 -2.407441 -2.471591 7.874251 -2.422193 -2.457015 11.275678 -0.693493 -12.766056 -6.678959 15.095481 -17.240574 168.715836 -80.885894 9.861072 -38.167456 36.618785 -13.310024 -87.589868 -7.441672 2.719049 0.847639 3.731687 58.554215 -151.442328 69.854107 30.804604 11.140929 -50.820719 -35.974367 -28.303413 16.650944 -1.329252 14.370358 3.184812 -2.773731 
-334.358432 0.000000 -121.943329 0.000000 79.117435 0.000000 1.421960 85.789703 -2.687983 97.626396 -7.528067 -174.687912 -160.615395 1.054397 174.962495 -26.196219 -3.784382 -2.613757 77.678259 -0.561798 -9.486714 21.454553 0.003087 -0.000003 157.795743 2.625396 -167.214683 -20.502619 4.973155 13.076055 72.933689 -11.995287 -8.713759 21.454557 -0.003106 -0.000017 9.060665 -0.961271 -1.059688 8.127168 -1.845864 -2.184433 7.809141 -1.858880 -2.173250 11.471054 -1.234985 -12.747236 -6.953775 14.726190 -17.207541 176.108887 -79.679819 2.396130 -36.000418 38.225372 -12.333825 -88.399798 -6.973566 2.722076 0.969903 4.124278 60.463430 -151.356323 69.805189 30.894725 11.810461 -51.386757 -35.874479 -27.684647 16.608619 -1.315313 14.588362 2.732582 -1.924714 
-334.009720 0.000000 -125.781110 0.000000 77.585937 0.000000 1.454007 85.256020 -2.407139 98.125518 -6.092131 -174.983202 -163.236494 -1.214495 171.573887 -36.520318 -2.709696 -1.156299 71.482970 -2.475014 -10.314290 21.454560 0.003090 0.000005 158.228067 0.149789 -169.460805 -23.876712 5.040874 14.060997 70.592034 -13.712507 -11.288167 21.454557 -0.003106 -0.000017 9.056178 -0.575310 -0.911951 8.108714 -1.085434 -1.862001 7.790726 -1.096516 -1.855417 11.639012 -1.513026 -12.878356 -7.245914 14.720564 -17.407294 -178.520395 -78.622096 -3.043815 -32.943669 40.928891 -10.485629 -88.315118 -6.835299 2.708633 2.191612 4.449376 58.341038 -150.979624 69.503759 31.291709 12.131038 -51.988070 -36.296278 -27.780937 16.565540 -1.314301 13.892123 3.541997 -2.873517 
